<?xml version="1.0" encoding="iso-8859-1"?>
<!-- Generator: Adobe Illustrator 16.0.0, SVG Export Plug-In . SVG Version: 6.00 Build 0)  -->
<!DOCTYPE svg PUBLIC "-//W3C//DTD SVG 1.1//EN" "http://www.w3.org/Graphics/SVG/1.1/DTD/svg11.dtd">
<svg version="1.1" id="Capa_1" xmlns="http://www.w3.org/2000/svg" xmlns:xlink="http://www.w3.org/1999/xlink" x="0px" y="0px"
	 width="412.344px" height="412.344px" viewBox="0 0 412.344 412.344" style="enable-background:new 0 0 412.344 412.344;"
	 xml:space="preserve">
<g>
	<g id="Layer_8_1_">
		<path d="M296.664,155.077c2.942,4.26,1.869,10.085-2.381,13.029l-84.87,58.622c-1.6,1.105-3.46,1.663-5.326,1.663
			c-1.489,0-2.979-0.361-4.347-1.072c-3.082-1.619-5.016-4.804-5.016-8.285V93.542c0-5.171,4.192-9.363,9.363-9.363
			c5.173,0,9.365,4.192,9.365,9.363V201.17l70.176-48.473C287.89,149.766,293.723,150.83,296.664,155.077z M375.371,153.783
			c4.073,14.826,6.295,30.406,6.295,46.514c0,65.478-36.022,122.676-89.256,152.92l38.172,38.167c4.789,4.799,4.789,12.569,0,17.363
			c-4.787,4.793-12.561,4.793-17.36,0.011l-43.414-43.415c-0.312-0.317-0.55-0.673-0.817-1.007
			c-19.61,7.573-40.887,11.771-63.131,11.771c-19.729,0-38.686-3.321-56.405-9.339l-41.983,41.99
			c-4.791,4.782-12.564,4.782-17.36-0.011c-4.791-4.789-4.791-12.554,0-17.363l35.009-35.01
			c-56.414-29.298-95.071-88.236-95.071-156.072c0-16.301,2.279-32.068,6.443-47.054C3.982,117.752,4.804,62.654,39.182,28.274
			c35.334-35.331,92.617-35.331,127.946,0l-0.74,0.744c10.434-2.408,21.226-3.855,32.264-4.315v-5.871
			c0-1.214,0.248-2.369,0.684-3.422h-2.389c-4.25,0-7.704-3.447-7.704-7.705c0-4.261,3.454-7.705,7.704-7.705h21.476
			c4.257,0,7.704,3.444,7.704,7.705c0,4.257-3.447,7.705-7.704,7.705h-2.392c0.439,1.054,0.684,2.213,0.684,3.422v6.011
			c10.053,0.635,19.886,2.121,29.424,4.361l-0.929-0.936c35.331-35.33,92.617-35.33,127.944,0
			C407.705,62.819,408.374,118.297,375.371,153.783z M353.006,200.297c0-81.145-66.012-147.167-147.152-147.167
			c-81.145,0-147.162,66.017-147.162,147.167c0,81.128,66.017,147.159,147.162,147.159
			C286.995,347.456,353.006,281.435,353.006,200.297z"/>
	</g>
</g>
<g>
</g>
<g>
</g>
<g>
</g>
<g>
</g>
<g>
</g>
<g>
</g>
<g>
</g>
<g>
</g>
<g>
</g>
<g>
</g>
<g>
</g>
<g>
</g>
<g>
</g>
<g>
</g>
<g>
</g>
</svg>
