<?xml version="1.0" encoding="iso-8859-1"?>
<!-- Generator: Adobe Illustrator 19.0.0, SVG Export Plug-In . SVG Version: 6.00 Build 0)  -->
<svg version="1.1" id="Capa_1" xmlns="http://www.w3.org/2000/svg" xmlns:xlink="http://www.w3.org/1999/xlink" x="0px" y="0px"
	 viewBox="0 0 512 512" style="enable-background:new 0 0 512 512;" xml:space="preserve">
<g>
	<g>
		<path d="M416.666,0H95.334C42.766,0,0,42.767,0,95.334v321.332C0,469.233,42.766,512,95.334,512h321.332
			C469.233,512,512,469.233,512,416.666V95.334C512,42.767,469.233,0,416.666,0z M137.074,312.138
			c-1.592,0.538-3.213,0.794-4.805,0.794c-6.257,0-12.094-3.945-14.209-10.201c-8.564-25.339-9.994-52.551-4.136-78.694
			c6.024-26.883,19.549-51.434,39.112-70.998c27.503-27.503,64.069-42.649,102.963-42.649c27.795,0,54.398,7.739,77.356,22.191
			l0.001-21.181c0-8.283,6.717-14.999,15-14.999c8.285,0,15,6.716,15,15.001l-0.002,52.242c0,0.495-0.026,0.989-0.074,1.481
			c-0.023,0.225-0.065,0.442-0.096,0.664c-0.039,0.262-0.068,0.525-0.121,0.785c-0.05,0.256-0.12,0.502-0.184,0.753
			c-0.057,0.224-0.105,0.449-0.172,0.671c-0.074,0.246-0.166,0.482-0.253,0.723c-0.079,0.222-0.152,0.444-0.243,0.662
			c-0.093,0.225-0.202,0.441-0.306,0.66c-0.106,0.225-0.206,0.451-0.323,0.67c-0.113,0.213-0.242,0.414-0.365,0.619
			c-0.129,0.214-0.249,0.431-0.389,0.639c-0.154,0.23-0.325,0.447-0.491,0.669c-0.128,0.17-0.245,0.345-0.382,0.511
			c-0.628,0.766-1.33,1.468-2.097,2.096c-0.166,0.137-0.341,0.255-0.512,0.383c-0.22,0.166-0.436,0.336-0.666,0.49
			c-0.211,0.141-0.43,0.263-0.645,0.393c-0.203,0.121-0.402,0.249-0.612,0.361c-0.223,0.119-0.451,0.22-0.679,0.326
			c-0.216,0.103-0.429,0.211-0.65,0.303c-0.223,0.092-0.45,0.166-0.676,0.247c-0.235,0.085-0.469,0.175-0.709,0.248
			c-0.229,0.069-0.461,0.12-0.691,0.178c-0.244,0.061-0.484,0.13-0.732,0.179c-0.27,0.054-0.542,0.086-0.814,0.125
			c-0.211,0.029-0.42,0.07-0.635,0.092c-0.495,0.049-0.991,0.074-1.488,0.074h-52.236c-8.285,0-15-6.716-15-15s6.715-15,15-15h2.935
			c-13.508-5.414-28.059-8.256-43.049-8.256c-30.881,0-59.913,12.026-81.749,33.862c-31.324,31.326-41.966,76.876-27.77,118.874
			C149.134,300.973,144.922,309.485,137.074,312.138z M398.075,287.964c-6.024,26.881-19.55,51.432-39.112,70.996
			C331.46,386.463,294.895,401.609,256,401.609c-27.793,0-54.396-7.739-77.355-22.19l0.002,21.18c0,8.285-6.716,15.001-15,15.001
			s-15-6.715-15-14.999l-0.002-52.246v-0.001c0-0.488,0.024-0.976,0.072-1.463c0.012-0.127,0.038-0.25,0.054-0.377
			c0.044-0.36,0.091-0.721,0.161-1.078c0.021-0.102,0.052-0.201,0.074-0.304c0.082-0.378,0.17-0.754,0.283-1.126
			c0.019-0.063,0.045-0.124,0.064-0.188c0.129-0.403,0.268-0.804,0.43-1.197c0.014-0.032,0.03-0.063,0.044-0.095
			c0.175-0.417,0.366-0.828,0.581-1.23c0.016-0.029,0.035-0.057,0.051-0.086c0.216-0.397,0.446-0.789,0.7-1.17
			c0.054-0.079,0.116-0.153,0.171-0.231c0.224-0.322,0.451-0.643,0.703-0.951c0.314-0.385,0.649-0.756,1.004-1.11
			c0.355-0.355,0.728-0.69,1.113-1.007c0.271-0.223,0.557-0.42,0.84-0.621c0.115-0.082,0.226-0.174,0.344-0.253
			c0.352-0.233,0.713-0.443,1.077-0.644c0.062-0.034,0.118-0.074,0.181-0.107c0.375-0.2,0.76-0.377,1.148-0.543
			c0.06-0.025,0.117-0.057,0.177-0.082c0.369-0.152,0.745-0.28,1.122-0.402c0.089-0.027,0.174-0.064,0.264-0.092
			c0.346-0.103,0.697-0.185,1.05-0.264c0.127-0.028,0.251-0.066,0.378-0.092c0.324-0.064,0.652-0.103,0.98-0.146
			c0.158-0.021,0.314-0.053,0.475-0.068c0.391-0.038,0.783-0.051,1.176-0.059c0.096-0.002,0.188-0.014,0.283-0.014l52.246,0.002
			c8.284,0,15,6.716,15,15.001c-0.001,8.283-6.717,14.999-15,14.999c-0.001,0,0,0-0.001,0h-2.934
			c13.507,5.412,28.056,8.254,43.044,8.254c30.881,0,59.913-12.025,81.749-33.862c31.324-31.326,41.965-76.874,27.77-118.869
			c-2.653-7.849,1.559-16.361,9.407-19.014c7.848-2.653,16.36,1.559,19.013,9.406C402.504,234.608,403.934,261.82,398.075,287.964z"
			/>
	</g>
</g>
<g>
</g>
<g>
</g>
<g>
</g>
<g>
</g>
<g>
</g>
<g>
</g>
<g>
</g>
<g>
</g>
<g>
</g>
<g>
</g>
<g>
</g>
<g>
</g>
<g>
</g>
<g>
</g>
<g>
</g>
</svg>
